<?xml version="1.0" standalone="no"?>
<!DOCTYPE svg PUBLIC "-//W3C//DTD SVG 20010904//EN"
 "http://www.w3.org/TR/2001/REC-SVG-20010904/DTD/svg10.dtd">
<svg version="1.0" xmlns="http://www.w3.org/2000/svg"
 width="1024.000000pt" height="1024.000000pt" viewBox="0 0 1024.000000 1024.000000"
 preserveAspectRatio="xMidYMid meet">

<g transform="translate(0.000000,1024.000000) scale(0.100000,-0.100000)"
fill="#000000" stroke="none">
<path d="M5174 7683 c-37 -153 -69 -284 -72 -290 -3 -10 18 -13 86 -13 78 0
91 3 96 18 4 13 108 440 131 540 5 22 4 22 -84 22 l-89 0 -68 -277z"/>
<path d="M3895 7169 l-439 -440 440 -440 439 -439 63 63 63 63 -375 375 -375
374 352 356 c194 196 362 367 374 381 l23 24 -63 62 -63 62 -439 -441z"/>
<path d="M5835 7540 l-60 -60 376 -376 376 -376 -376 -374 -376 -373 65 -65
65 -66 437 437 438 438 -437 437 c-241 241 -440 438 -443 438 -3 0 -32 -27
-65 -60z"/>
<path d="M4690 7005 l0 -115 115 0 115 0 0 115 0 115 -115 0 -115 0 0 -115z"/>
<path d="M5010 7005 l0 -115 110 0 110 0 0 115 0 115 -110 0 -110 0 0 -115z"/>
<path d="M5320 7005 l0 -115 115 0 115 0 0 115 0 115 -115 0 -115 0 0 -115z"/>
<path d="M4690 6690 l0 -120 115 0 115 0 0 120 0 120 -115 0 -115 0 0 -120z"/>
<path d="M5010 6690 l0 -120 110 0 110 0 0 120 0 120 -110 0 -110 0 0 -120z"/>
<path d="M5324 6690 l1 -120 113 0 112 0 0 120 0 120 -113 0 -113 0 0 -120z"/>
<path d="M4690 6375 l0 -115 115 0 115 0 0 115 0 115 -115 0 -115 0 0 -115z"/>
<path d="M5010 6375 l0 -115 110 0 110 0 0 115 0 115 -110 0 -110 0 0 -115z"/>
<path d="M5321 6375 l3 -115 113 0 113 0 0 115 0 115 -116 0 -116 0 3 -115z"/>
<path d="M4930 5958 c-6 -29 -37 -158 -69 -286 l-58 -233 91 3 90 3 68 275
c37 151 67 278 68 283 0 4 -40 7 -89 7 l-90 0 -11 -52z"/>
<path d="M2416 4840 c-73 -13 -135 -56 -165 -115 l-26 -49 0 -286 0 -285 28
-58 c34 -68 84 -102 176 -119 129 -24 243 22 287 115 23 51 24 57 24 332 0
165 -4 296 -11 318 -13 49 -64 106 -114 128 -50 21 -136 30 -199 19z m113
-141 c59 -21 66 -47 69 -299 4 -245 -2 -286 -45 -319 -32 -26 -99 -28 -132 -5
-45 32 -51 67 -51 307 0 247 5 278 54 308 36 22 60 24 105 8z"/>
<path d="M7453 4840 c-58 -12 -95 -33 -131 -74 -50 -58 -54 -84 -50 -401 3
-284 3 -291 26 -328 34 -54 79 -84 155 -104 127 -33 252 10 307 107 25 45 25
48 28 325 3 266 2 284 -18 338 -24 63 -69 107 -128 125 -55 17 -141 22 -189
12z m127 -145 c58 -30 61 -50 58 -326 l-3 -251 -33 -29 c-56 -50 -145 -33
-173 33 -20 46 -20 479 -1 525 24 55 95 77 152 48z"/>
<path d="M8790 4840 c-99 -12 -164 -59 -192 -138 -18 -51 -18 -568 0 -630 29
-98 111 -147 247 -147 129 0 206 51 235 154 5 20 10 105 10 189 l0 152 -120 0
-120 0 0 -65 0 -65 51 0 51 0 -4 -91 c-3 -85 -5 -92 -31 -115 -39 -34 -115
-34 -154 0 l-28 24 0 271 0 271 27 27 c22 21 37 27 77 27 68 1 102 -30 109
-103 l5 -51 70 0 70 0 -7 71 c-8 88 -24 126 -69 166 -54 48 -127 65 -227 53z"/>
<path d="M2880 4388 l0 -448 70 0 70 0 2 272 3 272 119 -272 119 -272 68 0 69
0 0 445 0 445 -71 0 -71 0 3 -285 c2 -157 3 -285 2 -285 -3 0 -4 1 -142 320
l-110 255 -65 1 -66 0 0 -448z"/>
<path d="M3653 4816 c-36 -17 -60 -38 -80 -67 l-28 -42 -3 -296 c-4 -333 0
-362 57 -421 91 -96 318 -89 394 11 38 51 47 100 47 267 l0 152 -120 0 -120 0
0 -65 0 -65 51 0 51 0 -4 -91 c-3 -85 -5 -92 -31 -115 -22 -18 -40 -24 -78
-24 -59 0 -94 27 -104 81 -3 19 -5 141 -3 271 l3 238 27 27 c22 22 36 27 78
27 46 1 55 -3 81 -32 23 -25 29 -42 29 -77 l0 -45 70 0 70 0 0 40 c0 113 -44
195 -125 231 -62 29 -195 26 -262 -5z"/>
<path d="M7930 4830 c0 -3 -1 -204 -3 -447 l-2 -443 67 0 68 0 2 278 3 277 82
-185 c45 -102 99 -225 121 -275 l39 -90 72 -3 71 -3 0 446 0 445 -70 0 -71 0
3 -289 c2 -159 1 -288 -2 -286 -3 2 -61 133 -129 292 l-123 288 -64 0 c-35 1
-64 -2 -64 -5z"/>
<path d="M950 4384 l0 -446 173 4 c200 4 231 13 283 90 48 70 56 133 52 388
l-3 225 -30 60 c-53 106 -102 125 -322 125 l-153 0 0 -446z m291 293 c59 -40
64 -60 67 -285 3 -190 2 -206 -18 -247 -25 -52 -67 -75 -139 -75 l-51 0 0 315
0 315 54 0 c39 0 62 -6 87 -23z"/>
<path d="M1592 4448 c3 -414 3 -413 60 -464 52 -48 88 -59 188 -59 81 0 102 4
145 25 41 20 55 35 78 79 l27 55 0 373 0 373 -70 0 -70 0 0 -339 c0 -357 -3
-388 -45 -415 -28 -18 -87 -21 -117 -5 -44 24 -48 57 -48 419 l0 340 -76 0
-75 0 3 -382z"/>
<path d="M4450 4386 l0 -446 70 0 69 0 3 155 3 155 96 4 c113 6 152 19 196 69
45 51 56 101 51 242 -3 106 -6 125 -28 165 -17 29 -41 53 -70 70 -42 23 -55
25 -217 28 l-173 4 0 -446z m322 286 c21 -21 23 -32 23 -128 0 -103 -1 -106
-28 -130 -24 -21 -38 -24 -103 -24 l-74 0 0 156 0 156 80 -4 c67 -3 83 -7 102
-26z"/>
<path d="M5060 4385 l0 -445 70 0 70 0 0 190 0 190 105 0 105 0 0 -190 0 -190
75 0 75 0 0 445 0 445 -75 0 -75 0 0 -190 0 -190 -105 0 -105 0 0 190 0 190
-70 0 -70 0 0 -445z"/>
<path d="M5700 4474 c0 -236 4 -371 12 -401 24 -96 113 -148 253 -148 84 0
153 30 198 86 41 52 47 114 47 492 l0 327 -75 0 -74 0 -3 -355 -3 -355 -26
-26 c-16 -16 -41 -28 -67 -31 -37 -5 -45 -2 -77 30 l-35 35 0 351 0 351 -75 0
-75 0 0 -356z"/>
<path d="M6630 4385 l0 -445 145 0 c192 0 238 10 291 65 67 69 77 122 72 411
-3 227 -4 241 -26 287 -29 58 -81 102 -138 116 -23 6 -111 11 -193 11 l-151 0
0 -445z m310 280 c17 -16 35 -45 40 -64 5 -20 10 -121 10 -226 0 -167 -3 -195
-20 -233 -23 -51 -64 -72 -140 -72 l-50 0 0 316 0 316 65 -4 c55 -3 69 -8 95
-33z"/>
<path d="M1813 3469 c-69 -21 -98 -112 -49 -158 13 -12 52 -31 87 -42 94 -29
123 -65 82 -101 -41 -35 -119 -26 -147 17 -14 22 -19 23 -41 13 -30 -14 -31
-18 -3 -53 62 -80 220 -71 255 14 12 28 13 43 4 72 -14 48 -24 55 -118 87 -66
23 -79 31 -81 52 -8 51 74 69 125 26 25 -21 31 -22 48 -10 54 40 -80 108 -162
83z"/>
<path d="M2237 3466 c-50 -18 -76 -42 -98 -91 -21 -45 -25 -129 -8 -172 24
-65 95 -113 166 -113 161 0 241 214 124 331 -33 33 -92 60 -131 59 -8 -1 -32
-7 -53 -14z m119 -65 c109 -66 62 -257 -62 -254 -70 2 -116 55 -116 133 1 110
93 173 178 121z"/>
<path d="M6218 3470 c-161 -48 -171 -310 -15 -369 72 -28 166 1 201 60 10 16
20 54 23 84 l6 55 -82 0 -81 0 0 -31 0 -32 50 7 c45 6 50 5 50 -13 0 -30 -46
-78 -80 -85 -43 -8 -95 16 -120 56 -17 26 -20 45 -17 92 3 53 7 62 40 92 52
48 116 45 158 -8 15 -19 15 -19 39 0 l24 19 -30 31 c-28 28 -89 53 -124 51 -8
0 -27 -4 -42 -9z"/>
<path d="M2610 3290 c0 -99 1 -183 3 -187 1 -4 12 -7 25 -8 21 -1 22 3 22 82
l0 83 80 0 c79 0 80 0 80 25 0 25 -1 25 -80 25 l-80 0 0 56 0 55 95 -3 95 -3
0 28 0 27 -120 0 -120 0 0 -180z"/>
<path d="M2930 3443 c0 -28 1 -28 55 -25 l55 4 0 -160 0 -160 30 -4 30 -4 2
160 3 161 55 1 c52 1 55 2 58 27 l3 27 -145 0 -146 0 0 -27z"/>
<path d="M3347 3303 c74 -226 66 -209 99 -208 28 2 30 6 66 131 21 71 40 134
42 139 1 6 11 -17 20 -50 62 -214 66 -225 96 -225 28 0 29 3 85 176 31 97 59
182 62 191 4 11 -1 14 -28 11 l-33 -3 -40 -137 c-22 -75 -43 -135 -46 -133 -3
2 -24 65 -45 139 -40 136 -40 136 -70 136 l-30 0 -39 -141 c-23 -84 -42 -135
-47 -127 -4 7 -24 70 -44 141 l-38 127 -32 0 -33 0 55 -167z"/>
<path d="M3927 3288 c-37 -101 -67 -185 -67 -188 0 -3 13 -5 29 -5 25 0 31 6
42 38 l12 37 88 0 87 0 15 -39 c14 -33 20 -38 46 -37 17 1 31 2 31 3 0 1 -24
64 -53 140 -29 76 -61 159 -71 186 -17 44 -20 47 -55 47 l-36 0 -68 -182z
m140 27 l30 -85 -65 0 c-47 0 -63 3 -60 13 3 6 16 45 29 84 13 40 27 73 30 73
4 0 20 -38 36 -85z"/>
<path d="M4320 3283 l0 -188 25 0 c24 0 25 2 25 68 l0 67 44 0 c44 0 45 0 83
-67 34 -59 41 -66 71 -67 17 -1 32 0 32 1 0 0 -20 34 -45 74 -41 67 -44 74
-27 80 31 12 62 59 62 95 0 92 -45 124 -177 124 l-93 0 0 -187z m173 126 c29
-16 37 -28 37 -61 0 -41 -41 -68 -106 -68 l-54 0 0 63 c0 35 3 67 7 70 11 11
93 8 116 -4z"/>
<path d="M4718 3283 l3 -188 117 2 117 2 3 25 3 26 -95 0 -96 0 0 55 0 55 80
0 c79 0 80 0 80 25 0 25 -1 25 -80 25 l-80 0 0 56 0 55 93 -2 c50 -1 91 1 90
5 -2 3 -3 15 -3 26 0 19 -7 20 -117 20 l-118 0 3 -187z"/>
<path d="M5280 3283 l0 -188 119 0 119 0 5 28 4 27 -94 0 -93 0 0 55 0 55 80
0 c79 0 80 0 80 25 0 25 -1 25 -80 25 l-80 0 0 56 0 55 90 -3 90 -3 0 28 0 27
-120 0 -120 0 0 -187z"/>
<path d="M5650 3282 l0 -188 28 1 27 0 5 133 5 133 95 -133 c82 -115 99 -133
123 -133 l27 -1 0 188 0 188 -30 0 -30 0 0 -131 c0 -71 -4 -128 -9 -125 -4 3
-48 62 -97 131 -77 109 -92 125 -116 125 l-28 0 0 -188z"/>
<path d="M6560 3282 l0 -188 25 1 26 2 2 186 2 187 -27 0 -28 0 0 -188z"/>
<path d="M6760 3286 l0 -184 30 -4 29 -4 3 135 3 136 97 -135 c80 -113 101
-135 122 -135 l25 0 3 188 3 187 -27 0 -27 0 -3 -137 -3 -137 -98 137 c-88
123 -101 137 -127 137 l-30 0 0 -184z"/>
<path d="M7220 3286 l0 -185 120 -3 120 -3 0 28 0 27 -90 0 -90 0 0 55 0 55
80 0 c79 0 80 0 80 25 0 25 -1 25 -80 25 l-80 0 0 56 0 55 90 -3 90 -3 0 28 0
27 -120 0 -120 0 0 -184z"/>
<path d="M7588 3283 l3 -188 116 2 116 2 2 25 1 26 -93 0 -93 0 0 55 0 55 80
0 c79 0 80 0 80 25 0 25 -1 25 -80 25 l-80 0 0 56 0 55 90 -3 90 -3 0 28 0 27
-117 0 -118 0 3 -187z"/>
<path d="M7952 3283 l3 -186 28 -1 c27 -2 27 -1 27 66 l0 68 43 0 c42 0 42 -1
79 -68 34 -63 39 -67 72 -68 34 0 35 1 22 20 -60 93 -79 130 -67 134 58 19 85
94 56 155 -24 51 -65 67 -174 67 l-91 0 2 -187z m198 112 c11 -10 20 -30 20
-45 0 -41 -32 -63 -100 -68 l-60 -4 0 72 0 72 60 -4 c39 -3 66 -11 80 -23z"/>
</g>
</svg>
